<svg width="28" height="28" viewBox="0 0 28 28" fill="none" xmlns="http://www.w3.org/2000/svg">
<g clip-path="url(#clip0)">
<path d="M16.9848 13.1638C18.2392 12.1728 19.0452 10.6423 19.0452 8.92772C19.0452 5.94725 16.6101 3.52246 13.617 3.52246C10.6238 3.52246 8.18869 5.94725 8.18869 8.92772C8.18869 9.12306 8.19941 9.316 8.2198 9.50604C7.60282 9.16911 6.89522 8.9771 6.14327 8.9771C3.7538 8.9771 1.80988 10.9132 1.80988 13.293C1.80988 14.5337 2.33904 15.6531 3.18347 16.4411C1.31113 17.2632 0 19.1348 0 21.3072V26.326C0 27.249 0.750859 27.9998 1.67382 27.9998H7.75458H8.30145H19.4792C20.5489 27.9998 21.4191 27.1296 21.4191 26.06V19.4772C21.4191 16.5755 19.568 14.0983 16.9848 13.1638ZM13.617 5.16309C15.7055 5.16309 17.4046 6.85189 17.4046 8.92772C17.4046 11.0035 15.7055 12.6924 13.617 12.6924C11.5285 12.6924 9.82931 11.0035 9.82931 8.92772C9.82931 6.85189 11.5285 5.16309 13.617 5.16309ZM6.14327 10.6177C7.62809 10.6177 8.83608 11.8178 8.83608 13.293C8.83608 13.5069 8.81027 13.7192 8.76028 13.9247C8.00587 14.438 7.36099 15.1007 6.8687 15.8702C6.63392 15.9353 6.39084 15.9683 6.14327 15.9683C4.6585 15.9683 3.45051 14.7682 3.45051 13.293C3.45051 11.8179 4.6585 10.6177 6.14327 10.6177ZM1.64062 26.326V21.3072C1.64062 19.283 3.28743 17.6362 5.31163 17.6362H6.07152C5.90434 18.2214 5.81476 18.839 5.81476 19.4772V26.06C5.81476 26.1617 5.82274 26.2616 5.83789 26.3592H1.67382C1.65741 26.3592 1.64062 26.3424 1.64062 26.326ZM19.7785 26.06C19.7785 26.2222 19.6415 26.3592 19.4792 26.3592H8.30151H7.75463C7.59243 26.3592 7.45538 26.2222 7.45538 26.06V19.4772C7.45538 16.6812 9.73011 14.4064 12.5261 14.4064H14.7078C17.5038 14.4064 19.7785 16.6812 19.7785 19.4772V26.06Z" fill="black"/>
<path d="M27.1796 2.31645H25.6718V0.820312C25.6718 0.367281 25.3045 0 24.8515 0C24.3985 0 24.0312 0.367281 24.0312 0.820312V2.31645H22.5234C22.0704 2.31645 21.7031 2.68373 21.7031 3.13677C21.7031 3.5898 22.0704 3.95708 22.5234 3.95708H24.0312V5.45327C24.0312 5.9063 24.3985 6.27359 24.8515 6.27359C25.3045 6.27359 25.6718 5.9063 25.6718 5.45327V3.95708H27.1796C27.6326 3.95708 27.9999 3.5898 27.9999 3.13677C27.9999 2.68373 27.6326 2.31645 27.1796 2.31645Z" fill="black"/>
</g>
<defs>
<clipPath id="clip0">
<rect width="28" height="28" fill="white"/>
</clipPath>
</defs>
</svg>
