<svg width="20" height="20" viewBox="0 0 50 50" fill="none" xmlns="http://www.w3.org/2000/svg">
<g clip-path="url(#clip0)">
<path d="M43.965 39.7903C43.8181 39.6949 42.7119 38.92 41.6043 36.5758C39.5702 32.2709 39.1432 26.2066 39.1432 21.8774C39.1432 21.8586 39.1429 21.8399 39.1422 21.8212C39.12 16.0996 35.6939 11.1674 30.7912 8.95439V5.56992C30.7912 2.49863 28.2967 0 25.2305 0H24.7696C21.7034 0 19.2089 2.49863 19.2089 5.56992V8.9542C14.2897 11.1743 10.8568 16.1317 10.8568 21.8774C10.8568 26.2066 10.4299 32.2708 8.39579 36.5758C7.28827 38.9199 6.18211 39.6948 6.03504 39.7903C5.41571 40.077 5.11034 40.7391 5.25282 41.4101C5.39667 42.0877 6.03006 42.5549 6.72176 42.5549H17.4588C17.5187 46.6702 20.8775 50 25.0001 50C29.1226 50 32.4814 46.6702 32.5414 42.5549H43.2784C43.97 42.5549 44.6035 42.0877 44.7473 41.4101C44.8896 40.7391 44.5844 40.0769 43.965 39.7903V39.7903ZM22.1387 5.56992C22.1387 4.1167 23.3189 2.93447 24.7697 2.93447H25.2306C26.6813 2.93447 27.8616 4.1167 27.8616 5.56992V8.00322C26.937 7.81211 25.9799 7.71152 24.9997 7.71152C24.0198 7.71152 23.063 7.81201 22.1388 8.00293V5.56992H22.1387ZM25.0001 47.0655C22.493 47.0655 20.4479 45.0521 20.3885 42.555H29.6116C29.5522 45.0521 27.5072 47.0655 25.0001 47.0655V47.0655ZM30.8985 39.6203C30.8982 39.6203 10.0601 39.6203 10.0601 39.6203C10.3136 39.2254 10.5715 38.7782 10.8278 38.2729C12.7911 34.4015 13.7866 28.8853 13.7866 21.8774C13.7866 15.6844 18.8168 10.646 24.9996 10.646C31.1824 10.646 36.2126 15.6844 36.2126 21.8823C36.2126 21.9004 36.2129 21.9184 36.2136 21.9363C36.2191 28.916 37.2145 34.4124 39.1723 38.2729C39.4287 38.7783 39.6867 39.2254 39.94 39.6203H30.8985Z" fill="black"/>
</g>
<defs>
<clipPath id="clip0">
<rect width="50" height="50" fill="white"/>
</clipPath>
</defs>
</svg>
