<svg width="28" height="28" viewBox="0 0 28 28" fill="none" xmlns="http://www.w3.org/2000/svg">
<g clip-path="url(#clip0)">
<path d="M25.8429 17.5892C25.4577 17.5892 25.1456 17.9013 25.1456 18.2865V24.4782C25.1442 25.6331 24.2085 26.5691 23.0535 26.5702H3.48673C2.33175 26.5691 1.39605 25.6331 1.39469 24.4782V6.30606C1.39605 5.15136 2.33175 4.21539 3.48673 4.21403H9.67839C10.0636 4.21403 10.3757 3.90186 10.3757 3.51668C10.3757 3.13178 10.0636 2.81934 9.67839 2.81934H3.48673C1.56194 2.82152 0.0021792 4.38128 0 6.30606V24.4784C0.0021792 26.4032 1.56194 27.963 3.48673 27.9652H23.0535C24.9783 27.963 26.5381 26.4032 26.5402 24.4784V18.2865C26.5402 17.9013 26.2281 17.5892 25.8429 17.5892Z" fill="black"/>
<path d="M26.2639 1.02559C25.0384 -0.199937 23.0515 -0.199937 21.826 1.02559L9.38489 13.4667C9.29962 13.5519 9.23806 13.6576 9.20592 13.7737L7.56988 19.6801C7.5026 19.9223 7.57097 20.1816 7.74858 20.3595C7.92645 20.5371 8.18578 20.6055 8.42794 20.5385L14.3344 18.9021C14.4504 18.87 14.5561 18.8084 14.6414 18.7232L27.0822 6.28183C28.3058 5.05548 28.3058 3.07023 27.0822 1.84388L26.2639 1.02559ZM10.9043 13.9199L21.0864 3.73761L24.3702 7.0214L14.1879 17.2037L10.9043 13.9199ZM10.2484 15.2362L12.8719 17.8599L9.24296 18.8654L10.2484 15.2362ZM26.0961 5.29574L25.3565 6.03531L22.0725 2.75125L22.8123 2.01168C23.4931 1.33095 24.5968 1.33095 25.2775 2.01168L26.0961 2.82997C26.7758 3.51152 26.7758 4.61447 26.0961 5.29574Z" fill="black"/>
</g>
<defs>
<clipPath id="clip0">
<rect width="28" height="28" fill="white"/>
</clipPath>
</defs>
</svg>
