<svg width="28" height="28" viewBox="0 0 28 28" fill="none" xmlns="http://www.w3.org/2000/svg">
<path d="M27.2481 12.1786C27.2472 12.178 27.2466 12.1772 27.2459 12.1765L15.823 0.755157C15.3361 0.268097 14.6887 0 14.0002 0C13.3116 0 12.6642 0.268097 12.1771 0.755157L0.760176 12.1707C0.756331 12.1746 0.752271 12.1786 0.74864 12.1825C-0.251217 13.188 -0.249508 14.8195 0.753553 15.8224C1.21182 16.2809 1.81686 16.5462 2.46399 16.5742C2.49048 16.5767 2.51698 16.578 2.54368 16.578H2.99874V24.9832C2.99874 26.6467 4.3524 28 6.01605 28H10.4851C10.9382 28 11.3055 27.6326 11.3055 27.1797V20.5898C11.3055 19.8308 11.9231 19.2135 12.6822 19.2135H15.3181C16.0772 19.2135 16.6946 19.8308 16.6946 20.5898V27.1797C16.6946 27.6326 17.0619 28 17.515 28H21.9841C23.6479 28 25.0014 26.6467 25.0014 24.9832V16.578H25.4235C26.1119 16.578 26.7592 16.3099 27.2466 15.8226C28.2507 14.8182 28.2511 13.1837 27.2481 12.1786ZM26.0863 14.6627C25.9091 14.8398 25.6737 14.9374 25.4235 14.9374H24.181C23.7278 14.9374 23.3606 15.3046 23.3606 15.7577V24.9832C23.3606 25.742 22.7431 26.3594 21.9841 26.3594H18.3354V20.5898C18.3354 18.9264 16.982 17.5728 15.3181 17.5728H12.6822C11.0183 17.5728 9.66467 18.9264 9.66467 20.5898V26.3594H6.01605C5.25718 26.3594 4.63954 25.742 4.63954 24.9832V15.7577C4.63954 15.3046 4.27228 14.9374 3.81914 14.9374H2.59795C2.58513 14.9365 2.57252 14.9359 2.55949 14.9357C2.31508 14.9314 2.08584 14.8344 1.91407 14.6624C1.54874 14.2971 1.54874 13.7026 1.91407 13.3371C1.91428 13.3371 1.91428 13.3369 1.9145 13.3367L1.91514 13.3361L13.3376 1.91513C13.5145 1.73804 13.7498 1.64062 14.0002 1.64062C14.2503 1.64062 14.4856 1.73804 14.6627 1.91513L26.0826 13.3337C26.0843 13.3354 26.0863 13.3371 26.088 13.3388C26.4514 13.7048 26.4507 14.298 26.0863 14.6627Z" fill="black"/>
</svg>
