<svg width="20" height="20" viewBox="0 0 50 50" fill="none" xmlns="http://www.w3.org/2000/svg">
<path d="M25.0002 26.9232C26.042 26.9232 26.9438 26.5434 27.7045 25.7815C28.4654 25.0207 28.8468 24.1187 28.8468 23.0773V3.84636C28.8468 2.80445 28.4659 1.90313 27.7045 1.14232C26.9439 0.380669 26.042 0 25.0002 0C23.9582 0 23.0569 0.38109 22.2957 1.14232C21.5345 1.90313 21.1538 2.80487 21.1538 3.84636V23.0775C21.1538 24.1188 21.5345 25.0207 22.2957 25.7816C23.0569 26.5434 23.9586 26.9232 25.0002 26.9232Z" fill="black"/>
<path d="M45.6588 16.6166C44.0459 13.3917 41.7776 10.6872 38.853 8.5039C38.0117 7.86297 37.0602 7.61248 35.9985 7.75256C34.9367 7.89285 34.0954 8.39361 33.4744 9.25472C32.8334 10.0959 32.5885 11.0424 32.7384 12.0941C32.8881 13.1463 33.3844 13.9924 34.2258 14.6334C36.1881 16.1157 37.7064 17.9288 38.7776 20.0723C39.8494 22.2155 40.3847 24.4994 40.3847 26.9227C40.3847 29.0067 39.9791 30.9944 39.1679 32.8878C38.3569 34.7808 37.2599 36.4181 35.8775 37.8005C34.4951 39.1824 32.8582 40.2791 30.9649 41.0905C29.0718 41.9019 27.0837 42.3082 25.0004 42.3082C22.9174 42.3082 20.9291 41.9019 19.0361 41.0905C17.1428 40.2791 15.5054 39.1824 14.1231 37.8005C12.7413 36.4181 11.6444 34.7809 10.833 32.8878C10.0218 30.9944 9.61607 29.0067 9.61607 26.9227C9.61607 24.4994 10.152 22.2158 11.2236 20.0723C12.2953 17.9291 13.8127 16.116 15.7757 14.6334C16.617 13.992 17.1126 13.146 17.2631 12.0941C17.4133 11.0428 17.1681 10.0959 16.5269 9.25472C15.9059 8.39361 15.0699 7.89275 14.018 7.75256C12.9662 7.61238 12.0094 7.86297 11.1482 8.5039C8.22327 10.6872 5.95504 13.3917 4.34217 16.6166C2.72941 19.8419 1.92334 23.2773 1.92334 26.9228C1.92334 30.0483 2.53439 33.0327 3.75617 35.8772C4.97837 38.7218 6.62071 41.1752 8.68434 43.2388C10.7473 45.302 13.2013 46.945 16.0461 48.1659C18.8906 49.3883 21.8753 49.9998 25.0003 49.9998C28.1253 49.9998 31.1099 49.3883 33.9546 48.1659C36.7994 46.9446 39.2533 45.3018 41.3166 43.2388C43.3796 41.1758 45.0219 38.7218 46.2439 35.8772C47.4659 33.0327 48.0765 30.0475 48.0765 26.9228C48.0766 23.2772 47.2715 19.8418 45.6588 16.6166Z" fill="black"/>
</svg>
