<svg width="20" height="20" viewBox="0 0 50 50" fill="none" xmlns="http://www.w3.org/2000/svg">
<path d="M17.2648 0H5.78203C2.59385 0 0 2.59385 0 5.78203V17.2648C0 20.453 2.59385 23.0469 5.78203 23.0469H17.2648C20.453 23.0469 23.0469 20.453 23.0469 17.2648V5.78203C23.0469 2.59385 20.453 0 17.2648 0ZM19.1406 17.2648C19.1406 18.2991 18.2991 19.1406 17.2648 19.1406H5.78203C4.74775 19.1406 3.90625 18.2991 3.90625 17.2648V5.78203C3.90625 4.74775 4.74775 3.90625 5.78203 3.90625H17.2648C18.2991 3.90625 19.1406 4.74775 19.1406 5.78203V17.2648Z" fill="black"/>
<path d="M44.1406 0H32.8125C29.5816 0 26.9531 2.62852 26.9531 5.85938V17.1875C26.9531 20.4184 29.5816 23.0469 32.8125 23.0469H44.1406C47.3715 23.0469 50 20.4184 50 17.1875V5.85938C50 2.62852 47.3715 0 44.1406 0ZM46.0938 17.1875C46.0938 18.2645 45.2176 19.1406 44.1406 19.1406H32.8125C31.7355 19.1406 30.8594 18.2645 30.8594 17.1875V5.85938C30.8594 4.78242 31.7355 3.90625 32.8125 3.90625H44.1406C45.2176 3.90625 46.0938 4.78242 46.0938 5.85938V17.1875Z" fill="black"/>
<path d="M17.2648 26.9531H5.78203C2.59385 26.9531 0 29.547 0 32.7352V44.218C0 47.4062 2.59385 50 5.78203 50H17.2648C20.453 50 23.0469 47.4062 23.0469 44.218V32.7352C23.0469 29.547 20.453 26.9531 17.2648 26.9531ZM19.1406 44.218C19.1406 45.2522 18.2991 46.0938 17.2648 46.0938H5.78203C4.74775 46.0938 3.90625 45.2522 3.90625 44.218V32.7352C3.90625 31.7009 4.74775 30.8594 5.78203 30.8594H17.2648C18.2991 30.8594 19.1406 31.7009 19.1406 32.7352V44.218Z" fill="black"/>
<path d="M44.1406 26.9531H32.8125C29.5816 26.9531 26.9531 29.5816 26.9531 32.8125V44.1406C26.9531 47.3715 29.5816 50 32.8125 50H44.1406C47.3715 50 50 47.3715 50 44.1406V32.8125C50 29.5816 47.3715 26.9531 44.1406 26.9531ZM46.0938 44.1406C46.0938 45.2176 45.2176 46.0938 44.1406 46.0938H32.8125C31.7355 46.0938 30.8594 45.2176 30.8594 44.1406V32.8125C30.8594 31.7355 31.7355 30.8594 32.8125 30.8594H44.1406C45.2176 30.8594 46.0938 31.7355 46.0938 32.8125V44.1406Z" fill="black"/>
</svg>
