<svg  viewBox="0 0 887 793" fill="none" xmlns="http://www.w3.org/2000/svg">
<path d="M719.917 793C812.194 793 887 781.807 887 768C887 754.193 812.194 743 719.917 743C627.64 743 552.834 754.193 552.834 768C552.834 781.807 627.64 793 719.917 793Z" fill="#E6E6E6"/>
<path d="M652.859 250.308C692.559 250.308 724.742 218.125 724.742 178.425C724.742 138.725 692.559 106.542 652.859 106.542C613.159 106.542 580.976 138.725 580.976 178.425C580.976 218.125 613.159 250.308 652.859 250.308Z" fill="#F2F2F2"/>
<path d="M432.075 38.7662C435.478 38.7662 438.236 36.0076 438.236 32.6048C438.236 29.2019 435.478 26.4434 432.075 26.4434C428.672 26.4434 425.914 29.2019 425.914 32.6048C425.914 36.0076 428.672 38.7662 432.075 38.7662Z" fill="#FF6584"/>
<path d="M632.321 451.581C635.724 451.581 638.482 448.822 638.482 445.419C638.482 442.016 635.724 439.258 632.321 439.258C628.918 439.258 626.16 442.016 626.16 445.419C626.16 448.822 628.918 451.581 632.321 451.581Z" fill="#FF6584"/>
<path d="M652.859 38.7662C656.262 38.7662 659.02 36.0076 659.02 32.6048C659.02 29.2019 656.262 26.4434 652.859 26.4434C649.456 26.4434 646.698 29.2019 646.698 32.6048C646.698 36.0076 649.456 38.7662 652.859 38.7662Z" fill="#F2F2F2"/>
<path d="M739.119 335.541C742.522 335.541 745.28 332.783 745.28 329.38C745.28 325.977 742.522 323.218 739.119 323.218C735.716 323.218 732.957 325.977 732.957 329.38C732.957 332.783 735.716 335.541 739.119 335.541Z" fill="#F2F2F2"/>
<path d="M493.689 205.125C497.092 205.125 499.851 202.366 499.851 198.963C499.851 195.56 497.092 192.802 493.689 192.802C490.286 192.802 487.528 195.56 487.528 198.963C487.528 202.366 490.286 205.125 493.689 205.125Z" fill="#F2F2F2"/>
<path d="M168.161 164.048C171.564 164.048 174.323 161.29 174.323 157.887C174.323 154.484 171.564 151.726 168.161 151.726C164.758 151.726 162 154.484 162 157.887C162 161.29 164.758 164.048 168.161 164.048Z" fill="#F2F2F2"/>
<path d="M284.201 623.074C399.898 623.074 493.689 529.283 493.689 413.586C493.689 297.889 399.898 204.098 284.201 204.098C168.504 204.098 74.7131 297.889 74.7131 413.586C74.7131 529.283 168.504 623.074 284.201 623.074Z" fill="#0582CA"/>
<path opacity="0.2" d="M274.959 359.16C291.973 359.16 305.766 345.367 305.766 328.352C305.766 311.338 291.973 297.545 274.959 297.545C257.945 297.545 244.152 311.338 244.152 328.352C244.152 345.367 257.945 359.16 274.959 359.16Z" fill="black"/>
<path opacity="0.2" d="M274.959 588.159C304.45 588.159 328.358 564.251 328.358 534.76C328.358 505.268 304.45 481.361 274.959 481.361C245.468 481.361 221.56 505.268 221.56 534.76C221.56 564.251 245.468 588.159 274.959 588.159Z" fill="black"/>
<path opacity="0.2" d="M119.897 466.985C127.27 466.985 133.247 461.008 133.247 453.635C133.247 446.262 127.27 440.285 119.897 440.285C112.524 440.285 106.547 446.262 106.547 453.635C106.547 461.008 112.524 466.985 119.897 466.985Z" fill="black"/>
<path opacity="0.2" d="M646.606 148.443C650.525 148.443 653.703 145.266 653.703 141.347C653.703 137.427 650.525 134.25 646.606 134.25C642.687 134.25 639.509 137.427 639.509 141.347C639.509 145.266 642.687 148.443 646.606 148.443Z" fill="black"/>
<path opacity="0.2" d="M345.724 289.129C349.643 289.129 352.82 285.952 352.82 282.032C352.82 278.113 349.643 274.936 345.724 274.936C341.804 274.936 338.627 278.113 338.627 282.032C338.627 285.952 341.804 289.129 345.724 289.129Z" fill="black"/>
<path opacity="0.2" d="M265.717 432.07C270.821 432.07 274.959 427.932 274.959 422.828C274.959 417.723 270.821 413.585 265.717 413.585C260.613 413.585 256.475 417.723 256.475 422.828C256.475 427.932 260.613 432.07 265.717 432.07Z" fill="black"/>
<path opacity="0.2" d="M629.332 205.142C633.251 205.142 636.429 201.965 636.429 198.046C636.429 194.126 633.251 190.949 629.332 190.949C625.413 190.949 622.235 194.126 622.235 198.046C622.235 201.965 625.413 205.142 629.332 205.142Z" fill="black"/>
<path opacity="0.2" d="M438.328 379.716C442.247 379.716 445.425 376.539 445.425 372.62C445.425 368.7 442.247 365.523 438.328 365.523C434.409 365.523 431.231 368.7 431.231 372.62C431.231 376.539 434.409 379.716 438.328 379.716Z" fill="black"/>
<path opacity="0.2" d="M692.926 201.603C698.588 201.603 703.177 197.014 703.177 191.353C703.177 185.691 698.588 181.102 692.926 181.102C687.265 181.102 682.676 185.691 682.676 191.353C682.676 197.014 687.265 201.603 692.926 201.603Z" fill="black"/>
<path opacity="0.2" d="M379.721 455.248C385.383 455.248 389.972 450.659 389.972 444.998C389.972 439.336 385.383 434.747 379.721 434.747C374.06 434.747 369.471 439.336 369.471 444.998C369.471 450.659 374.06 455.248 379.721 455.248Z" fill="black"/>
<path opacity="0.2" d="M154.812 341.702C162.184 341.702 168.161 335.726 168.161 328.353C168.161 320.98 162.184 315.003 154.812 315.003C147.439 315.003 141.462 320.98 141.462 328.353C141.462 335.726 147.439 341.702 154.812 341.702Z" fill="black"/>
<path d="M329.589 534.338C307.559 534.308 285.547 533.036 263.66 530.528C197.829 523.052 137.114 505.386 92.701 480.785C47.7439 455.883 24.7394 426.725 27.924 398.682C30.1302 379.253 48.9093 361.862 85.3337 345.519C85.8306 345.297 86.3952 345.282 86.9036 345.476C87.4121 345.67 87.8227 346.058 88.0455 346.554C88.2682 347.051 88.2849 347.615 88.0917 348.124C87.8986 348.633 87.5115 349.044 87.0154 349.268C52.0281 364.965 34.0342 381.28 32.0055 399.145C29.02 425.43 51.2825 453.147 94.6916 477.192C138.644 501.538 198.816 519.03 264.123 526.447C329.431 533.864 391.993 530.309 440.285 516.44C487.981 502.742 515.892 480.722 518.876 454.437C520.896 436.655 511.101 417.801 490.551 399.911C490.14 399.553 489.888 399.047 489.851 398.503C489.813 397.96 489.993 397.424 490.351 397.013C490.708 396.602 491.215 396.35 491.758 396.312C492.302 396.275 492.838 396.455 493.249 396.812C514.864 415.629 525.137 435.716 522.958 454.9C519.773 482.944 490.816 506.201 441.42 520.387C409.258 529.625 370.871 534.338 329.589 534.338Z" fill="white"/>
<path d="M651.786 721.101L653.241 734.201L640.142 732.745V716.734L651.786 721.101Z" fill="#FFB8B8"/>
<path d="M788.607 721.101L787.151 734.201L800.251 732.745V716.734L788.607 721.101Z" fill="#FFB8B8"/>
<path d="M650.33 438.726L644.508 588.647C644.508 588.647 625.586 700.723 629.953 703.635C634.319 706.546 629.953 722.557 629.953 722.557L654.697 725.468C654.697 725.468 654.697 713.823 660.519 709.457C666.341 705.09 720.196 499.858 720.196 499.858L775.507 697.812C775.507 697.812 774.051 709.457 778.418 709.457C782.785 709.457 784.24 725.468 784.24 725.468H808.984V709.457C808.984 709.457 816.262 708.001 811.896 696.357C807.529 684.713 791.518 438.726 791.518 438.726L650.33 438.726Z" fill="#2F2E41"/>
<path d="M643.053 721.101C643.053 721.101 635.775 716.734 632.864 719.645C629.953 722.556 606.664 751.667 606.664 751.667C606.664 751.667 574.642 772.045 603.753 777.867C632.864 783.689 654.697 756.034 656.152 753.123C657.608 750.212 654.697 726.923 653.241 729.834C651.786 732.745 647.419 731.29 645.964 729.834C644.508 728.379 643.053 721.101 643.053 721.101Z" fill="#2F2E41"/>
<path d="M797.34 721.101C797.34 721.101 804.618 716.734 807.529 719.645C810.44 722.556 833.729 751.667 833.729 751.667C833.729 751.667 865.751 772.045 836.64 777.867C807.529 783.689 785.696 756.034 784.24 753.123C782.785 750.212 785.696 726.923 787.152 729.834C788.607 732.745 792.974 731.29 794.429 729.834C795.885 728.379 797.34 721.101 797.34 721.101Z" fill="#2F2E41"/>
<path d="M738.391 223.305C754.87 223.305 768.229 209.946 768.229 193.467C768.229 176.987 754.87 163.628 738.391 163.628C721.911 163.628 708.552 176.987 708.552 193.467C708.552 209.946 721.911 223.305 738.391 223.305Z" fill="#FFB8B8"/>
<path d="M718.741 210.205L714.374 255.327L749.307 262.605L758.041 208.75L718.741 210.205Z" fill="#FFB8B8"/>
<path d="M755.129 245.138C755.129 245.138 746.396 264.06 714.374 243.683L654.697 438.725C654.697 438.725 734.752 486.758 785.696 450.37L768.229 253.871L755.129 245.138Z" fill="#575A89"/>
<path d="M720.196 223.305L692.541 218.938L689.63 237.861C689.63 237.861 651.786 242.227 647.419 256.783L651.786 364.493C651.786 364.493 638.686 387.782 650.33 402.337C650.33 402.337 631.408 441.637 645.964 448.914C645.964 448.914 679.441 432.903 699.819 437.27C699.819 437.27 711.463 434.359 711.463 425.626C711.463 416.892 720.196 223.305 720.196 223.305Z" fill="#2F2E41"/>
<path d="M753.674 226.216L769.685 230.583L771.14 250.961C771.14 250.961 810.44 275.705 811.896 290.26C813.351 304.816 782.785 374.682 782.785 374.682C782.785 374.682 794.429 395.059 790.063 408.159C790.063 408.159 808.985 446.003 797.34 456.192C797.34 456.192 775.507 462.014 772.596 453.281C769.685 444.548 743.485 344.115 755.129 296.082C755.129 296.082 743.485 234.95 753.674 226.216Z" fill="#2F2E41"/>
<path d="M770.413 273.618H769.865V258.61C769.865 257.47 769.64 256.34 769.204 255.286C768.767 254.232 768.127 253.275 767.321 252.468C766.514 251.661 765.557 251.022 764.503 250.585C763.449 250.149 762.319 249.924 761.178 249.924H729.381C728.241 249.924 727.111 250.149 726.057 250.585C725.003 251.022 724.046 251.661 723.239 252.468C722.433 253.275 721.793 254.232 721.356 255.286C720.92 256.34 720.695 257.47 720.695 258.61V340.947C720.695 342.088 720.92 343.217 721.356 344.271C721.793 345.325 722.433 346.282 723.239 347.089C724.046 347.896 725.003 348.535 726.057 348.972C727.111 349.409 728.241 349.633 729.381 349.633H761.178C762.319 349.633 763.449 349.409 764.503 348.972C765.557 348.535 766.514 347.896 767.321 347.089C768.127 346.282 768.767 345.325 769.204 344.271C769.64 343.217 769.865 342.088 769.865 340.947V284.302H770.413V273.618Z" fill="white"/>
<path d="M784.24 332.471C784.24 332.471 772.596 294.627 755.129 306.271C737.663 317.916 766.774 349.938 766.774 349.938L784.24 332.471Z" fill="#FFB8B8"/>
<path d="M704.186 304.816C704.186 304.816 724.563 280.071 734.752 291.716C744.941 303.36 717.285 329.56 717.285 329.56L704.186 304.816Z" fill="#FFB8B8"/>
<path d="M651.786 255.327C651.786 255.327 644.508 253.871 640.142 266.971C635.775 280.071 619.764 329.56 619.764 338.293C619.764 347.026 625.586 381.959 657.608 376.137C689.63 370.315 727.474 329.56 727.474 329.56L707.097 298.993L663.43 325.193L651.786 255.327Z" fill="#2F2E41"/>
<path opacity="0.1" d="M658.075 293.062L664.158 324.465L709.28 298.266L667.069 314.277L657.763 291.188L658.075 293.062Z" fill="black"/>
<path opacity="0.1" d="M786.424 324.465L792.246 328.832L795.157 308.454L786.424 324.465Z" fill="black"/>
<path opacity="0.1" d="M651.058 379.776C651.058 379.776 693.811 368.145 713.918 342.667C713.918 342.667 693.269 376.865 651.058 379.776Z" fill="black"/>
<path opacity="0.1" d="M758.768 353.576C758.768 353.576 767.771 397.636 790.925 398.895C790.925 398.895 763.135 407.431 758.768 353.576Z" fill="black"/>
<path d="M806.073 284.438C806.073 284.438 810.44 287.349 813.351 300.449C816.262 313.549 835.184 363.037 827.907 374.682C820.629 386.326 808.985 412.526 784.24 395.059L759.496 349.938L784.24 326.649L794.429 333.927L806.073 284.438Z" fill="#2F2E41"/>
<path d="M709.746 201.034C709.746 201.034 684.721 160.477 711.376 158.367C720.271 157.745 728.956 155.378 736.938 151.402C745.773 146.906 756.895 143.488 762.813 150.41C765.396 153.574 768.407 156.364 771.76 158.698C776.959 162.145 782.974 167.735 779.643 173.731L774.182 183.56L766.537 203.219C768.318 194.739 768.363 187.62 763.807 184.106C763.807 184.106 738.391 194.922 725.582 175.369C711.243 164.61 706.681 198.473 709.746 201.034Z" fill="#2F2E41"/>
<path d="M745.668 286.621C749.688 286.621 752.946 283.363 752.946 279.344C752.946 275.324 749.688 272.066 745.668 272.066C741.649 272.066 738.391 275.324 738.391 279.344C738.391 283.363 741.649 286.621 745.668 286.621Z" fill="#0582CA"/>
</svg>
