<svg  viewBox="0 0 595 425" fill="none" xmlns="http://www.w3.org/2000/svg">
<g clip-path="url(#clip0)">
<path d="M361.532 264.579L360.562 275.066C360.447 276.29 359.809 277.423 358.788 278.215C357.767 279.007 356.446 279.394 355.115 279.291L260.112 271.856C258.781 271.75 257.55 271.163 256.689 270.224C255.828 269.284 255.407 268.069 255.519 266.844L256.489 256.357C256.603 255.133 257.241 254 258.263 253.208C259.284 252.416 260.605 252.029 261.936 252.132L356.939 259.567C358.27 259.673 359.501 260.26 360.362 261.199C361.223 262.139 361.643 263.354 361.532 264.579Z" fill="#5EF36D"/>
<path d="M380.467 315.732L369.944 319.862C367.389 320.865 364.76 320.493 364.082 319.033L340.842 268.918C340.165 267.458 341.693 265.454 344.248 264.451L354.77 260.321C357.326 259.318 359.955 259.69 360.632 261.15L383.873 311.265C384.55 312.725 383.022 314.729 380.467 315.732Z" fill="#5EF36D"/>
<path d="M324.762 299.496H146.578C148.63 285.831 146.098 271.915 139.322 259.609C132.546 247.303 121.848 237.193 108.658 230.632C95.4684 224.07 80.4157 221.37 65.5128 222.892C50.61 224.413 36.5672 230.085 25.2621 239.147C13.9571 248.209 5.9286 260.231 2.25016 273.604C-1.42827 286.978 -0.581332 301.066 4.67773 313.985C9.9368 326.903 19.3573 338.037 31.6797 345.897C44.0021 353.757 58.639 357.969 73.6334 357.969C82.6415 357.978 91.5745 356.462 99.9864 353.496V419.295C99.9864 420.808 100.64 422.259 101.803 423.329C102.965 424.399 104.543 425 106.187 425H324.762C326.406 425 327.984 424.399 329.147 423.329C330.309 422.259 330.963 420.808 330.963 419.295V305.201C330.963 303.688 330.309 302.236 329.147 301.167C327.984 300.097 326.406 299.496 324.762 299.496Z" fill="#E6E6E6"/>
<path d="M337.938 410.025H119.363C117.514 410.023 115.741 409.346 114.433 408.143C113.125 406.94 112.39 405.309 112.388 403.607V289.512C112.39 287.811 113.125 286.18 114.433 284.977C115.741 283.773 117.514 283.097 119.363 283.095H337.938C339.788 283.097 341.561 283.773 342.869 284.977C344.176 286.18 344.912 287.811 344.914 289.512V403.607C344.912 405.309 344.176 406.94 342.869 408.143C341.561 409.346 339.788 410.023 337.938 410.025ZM119.363 284.521C117.925 284.522 116.546 285.049 115.529 285.985C114.512 286.92 113.94 288.189 113.938 289.512V403.607C113.94 404.931 114.512 406.199 115.529 407.135C116.546 408.071 117.925 408.597 119.363 408.599H337.938C339.377 408.597 340.756 408.071 341.773 407.135C342.79 406.199 343.362 404.931 343.364 403.607V289.512C343.362 288.189 342.79 286.92 341.773 285.985C340.756 285.049 339.377 284.522 337.938 284.521H119.363Z" fill="#3F3D56"/>
<path d="M338.279 272.423L337.309 282.91C337.195 284.134 336.557 285.267 335.536 286.059C334.514 286.851 333.193 287.238 331.862 287.135L236.859 279.7C235.528 279.594 234.297 279.007 233.436 278.068C232.575 277.128 232.155 275.913 232.266 274.688L233.236 264.201C233.351 262.977 233.989 261.844 235.01 261.052C236.031 260.26 237.352 259.873 238.683 259.976L333.686 267.411C335.017 267.517 336.248 268.104 337.109 269.043C337.97 269.983 338.391 271.198 338.279 272.423Z" fill="#5EF36D"/>
<path d="M357.214 323.576L346.692 327.706C344.137 328.709 341.507 328.337 340.83 326.877L317.59 276.762C316.913 275.302 318.441 273.298 320.996 272.295L331.518 268.165C334.073 267.162 336.703 267.534 337.38 268.994L360.62 319.109C361.297 320.569 359.769 322.573 357.214 323.576Z" fill="#5EF36D"/>
<path d="M530.326 0.769582L510.633 14.6422L525.712 32.76L545.405 18.8874L530.326 0.769582Z" fill="#5EF36D"/>
<path d="M418.967 144.153C428.385 144.153 436.019 137.129 436.019 128.465C436.019 119.801 428.385 112.777 418.967 112.777C409.549 112.777 401.915 119.801 401.915 128.465C401.915 137.129 409.549 144.153 418.967 144.153Z" fill="#F03A47"/>
<path d="M414.592 139.63C412.448 137.055 411.183 133.952 410.956 130.715C410.729 127.478 411.551 124.252 413.317 121.444C415.083 118.637 417.714 116.374 420.878 114.942C424.042 113.511 427.596 112.974 431.091 113.401C434.587 113.828 437.866 115.198 440.514 117.34C443.163 119.481 445.062 122.297 445.971 125.431C446.88 128.565 446.758 131.877 445.621 134.947C444.484 138.018 442.384 140.71 439.584 142.682C435.828 145.321 431.088 146.483 426.402 145.911C421.717 145.339 417.47 143.08 414.592 139.63ZM441.67 120.556C439.713 118.204 437.041 116.439 433.994 115.484C430.947 114.529 427.66 114.427 424.55 115.191C421.439 115.954 418.645 117.549 416.52 119.774C414.395 121.999 413.034 124.754 412.611 127.69C412.187 130.626 412.72 133.611 414.141 136.269C415.561 138.927 417.807 141.137 420.593 142.62C423.38 144.104 426.581 144.794 429.794 144.603C433.007 144.413 436.086 143.35 438.642 141.549C442.065 139.132 444.306 135.564 444.874 131.628C445.442 127.693 444.289 123.711 441.67 120.556Z" fill="#3F3D56"/>
<path d="M531.616 33.9899L515.594 14.7397L536.518 7.62939e-06L552.539 19.2501L531.616 33.9899ZM517.768 15.005L531.904 31.9904L550.366 18.9848L536.23 1.99944L517.768 15.005Z" fill="#3F3D56"/>
<path d="M572.786 128.03L553.094 141.903L568.172 160.02L587.865 146.148L572.786 128.03Z" fill="#5EF36D"/>
<path d="M574.076 161.25L558.055 142L578.979 127.26L595 146.511L574.076 161.25ZM560.228 142.265L574.365 159.251L592.827 146.245L578.691 129.26L560.228 142.265Z" fill="#3F3D56"/>
<path d="M484.43 408.599H0.775146V410.025H484.43V408.599Z" fill="#3F3D56"/>
<path d="M83.7095 340.142C68.9929 340.142 54.6068 336.127 42.3704 328.605C30.134 321.083 20.5969 310.391 14.9651 297.882C9.33327 285.374 7.85973 271.609 10.7308 258.33C13.6019 245.051 20.6886 232.853 31.0948 223.279C41.501 213.705 54.7593 207.185 69.1932 204.544C83.627 201.902 98.588 203.258 112.184 208.439C125.781 213.621 137.402 222.395 145.578 233.653C153.754 244.91 158.118 258.146 158.118 271.685C158.096 289.835 150.249 307.235 136.3 320.069C122.35 332.903 103.437 340.122 83.7095 340.142ZM83.7095 204.654C69.2995 204.654 55.2131 208.586 43.2316 215.951C31.2501 223.317 21.9117 233.785 16.3972 246.034C10.8828 258.282 9.43994 271.759 12.2512 284.762C15.0624 297.765 22.0015 309.709 32.1909 319.083C42.3804 328.457 55.3625 334.841 69.4956 337.428C83.6287 340.014 98.2781 338.687 111.591 333.613C124.904 328.54 136.283 319.949 144.289 308.925C152.295 297.902 156.568 284.943 156.568 271.685C156.546 253.914 148.863 236.876 135.204 224.309C121.545 211.743 103.026 204.675 83.7095 204.654Z" fill="#3F3D56"/>
<path d="M245.255 170.091C268.164 170.091 286.737 153.004 286.737 131.927C286.737 110.849 268.164 93.7626 245.255 93.7626C222.345 93.7626 203.772 110.849 203.772 131.927C203.772 153.004 222.345 170.091 245.255 170.091Z" fill="#5EF36D"/>
<path d="M251.359 146.072L251.316 144.645C254.2 144.572 256.742 144.405 258.653 143.121C259.194 142.736 259.639 142.249 259.958 141.691C260.276 141.134 260.461 140.52 260.498 139.892C260.532 139.508 260.469 139.122 260.314 138.764C260.159 138.406 259.916 138.086 259.605 137.828C258.337 136.842 256.296 137.161 254.808 137.789L253.526 138.33L255.986 121.793L257.521 121.987L255.429 136.053C257.45 135.507 259.323 135.742 260.605 136.739C261.098 137.134 261.484 137.629 261.734 138.185C261.985 138.741 262.092 139.342 262.047 139.942C262.002 140.787 261.757 141.612 261.328 142.36C260.9 143.108 260.299 143.761 259.567 144.273C257.112 145.923 253.922 146.005 251.359 146.072Z" fill="#2F2E41"/>
<path d="M273.466 123.2H265.117V124.626H273.466V123.2Z" fill="#2F2E41"/>
<path d="M247.113 123.2H238.764V124.626H247.113V123.2Z" fill="#2F2E41"/>
<path d="M304.61 284.877H206.949C206.024 284.876 205.137 284.538 204.483 283.937C203.83 283.335 203.462 282.519 203.461 281.668V209.489C203.471 200.739 207.254 192.351 213.979 186.164C220.703 179.977 229.821 176.497 239.331 176.487H271.281C272.196 176.488 273.073 176.819 273.725 177.409C274.378 177.999 274.752 178.801 274.768 179.643L308.098 281.616V281.668C308.097 282.519 307.729 283.335 307.075 283.937C306.421 284.538 305.534 284.876 304.61 284.877Z" fill="#2F2E41"/>
<path d="M239.737 205.692L251.176 205.775C252.512 205.786 253.788 206.284 254.725 207.159C255.662 208.035 256.183 209.217 256.174 210.446L255.425 298.163C255.413 299.392 254.872 300.566 253.92 301.428C252.968 302.291 251.683 302.77 250.348 302.762L238.908 302.679C237.573 302.668 236.296 302.17 235.359 301.294C234.422 300.419 233.901 299.237 233.91 298.008L234.659 210.29C234.671 209.062 235.213 207.887 236.164 207.025C237.116 206.163 238.401 205.684 239.737 205.692Z" fill="#5EF36D"/>
<path d="M228.263 202.159C228.263 197.998 230.06 194.008 233.258 191.066C236.456 188.123 240.793 186.471 245.315 186.471C249.838 186.471 254.175 188.123 257.373 191.066C260.571 194.008 262.367 197.998 262.367 202.159V237.1H228.263V202.159Z" fill="#2F2E41"/>
<path d="M233.001 113.952C236.93 110.233 242.637 109.593 248.008 109.998C253.76 110.431 259.21 112.189 264.852 113.167C270.417 114.131 276.45 114.563 281.769 112.427C284.225 111.412 286.353 109.829 287.946 107.832C289.538 105.835 290.541 103.492 290.856 101.033C291.541 95.8667 290.086 90.6531 286.781 86.4294C283.138 81.6936 277.963 78.2248 272.583 75.3131C260.986 69.0364 248.056 63.5443 234.487 62.5289C222.237 61.6123 209.248 64.7269 200.631 73.1437C192.553 81.0336 189.115 92.0449 188.399 102.649C187.487 116.183 190.92 129.548 192.162 142.968C193.129 153.41 192.767 165.945 183.549 173.444C175.396 180.077 162.981 179.998 153.369 176.375C141.943 172.068 133.926 162.4 127.863 152.898C126.319 150.479 124.868 148.011 123.461 145.523C122.77 144.301 120.762 145.381 121.453 146.602C127.128 156.636 133.728 166.658 143.655 173.61C152.334 179.689 163.914 182.618 174.642 180.048C179.843 178.854 184.489 176.153 187.894 172.344C191.571 168.129 193.501 162.943 194.305 157.638C195.167 151.96 194.867 146.237 194.242 140.553C193.491 133.709 192.293 126.915 191.473 120.079C190.076 108.436 189.884 96.3526 194.884 85.3523C197.039 80.4464 200.389 76.0603 204.674 72.5311C209.365 68.8931 214.992 66.4243 221.017 65.3614C234.162 62.8518 247.525 66.2497 259.424 71.37C265.43 73.8381 271.178 76.8057 276.598 80.2355C281.401 83.3985 285.875 87.5413 287.725 92.8237C289.32 97.3761 289.187 102.765 286.008 106.735C282.61 110.977 276.722 112.036 271.323 111.781C260.234 111.256 249.059 105.327 237.901 108.711C235.424 109.448 233.178 110.727 231.357 112.439C230.313 113.427 231.956 114.941 233.001 113.952Z" fill="#2F2E41"/>
</g>
<defs>
<clipPath id="clip0">
<rect width="595" height="425" fill="white"/>
</clipPath>
</defs>
</svg>
