<svg  viewBox="0 0 665 385" fill="none" xmlns="http://www.w3.org/2000/svg">
<path d="M542.027 384.304H531.28C529.929 384.303 528.634 383.826 527.678 382.977C526.723 382.129 526.185 380.979 526.184 379.779V300.25C526.185 299.051 526.723 297.9 527.678 297.052C528.634 296.203 529.929 295.726 531.28 295.725H542.027C543.378 295.726 544.674 296.203 545.629 297.052C546.585 297.9 547.122 299.051 547.124 300.25V379.779C547.122 380.979 546.585 382.129 545.629 382.977C544.674 383.826 543.378 384.303 542.027 384.304Z" fill="#F03A47"/>
<path d="M564.739 384.304H553.992C552.641 384.303 551.345 383.826 550.39 382.977C549.434 382.129 548.897 380.979 548.895 379.779V300.25C548.897 299.051 549.434 297.9 550.39 297.052C551.345 296.203 552.641 295.726 553.992 295.725H564.739C566.09 295.726 567.386 296.203 568.341 297.052C569.297 297.9 569.834 299.051 569.836 300.25V379.779C569.834 380.979 569.297 382.129 568.341 382.977C567.386 383.826 566.09 384.303 564.739 384.304Z" fill="#F03A47"/>
<path d="M568.383 325.411H526.88C525.239 325.409 523.666 324.83 522.505 323.8C521.345 322.769 520.693 321.373 520.691 319.916V309.572C520.693 308.115 521.345 306.718 522.505 305.688C523.666 304.658 525.239 304.078 526.88 304.076H568.383C570.024 304.078 571.597 304.658 572.757 305.688C573.917 306.718 574.57 308.115 574.572 309.572V319.916C574.57 321.373 573.917 322.769 572.757 323.8C571.597 324.83 570.024 325.409 568.383 325.411Z" fill="#2F2E41"/>
<path d="M551.524 132.575C552.792 121.352 561.099 110.62 573.78 107.699C579.968 106.24 586.538 106.77 592.329 109.193C597.572 111.541 601.693 115.48 603.947 120.294C606.17 125.057 607.022 130.237 606.424 135.365C605.747 140.97 603.732 146.382 600.513 151.24C597.074 156.625 592.601 161.439 587.906 165.99C583.122 170.628 577.71 174.895 573.685 180.101C570.116 184.719 567.245 190.99 570.763 196.305C572.142 198.254 574.124 199.808 576.472 200.782C578.82 201.756 581.435 202.108 584.003 201.796C585.262 201.626 586.48 201.267 587.604 200.735C588.844 200.147 589.949 201.821 588.707 202.409C583.996 204.642 578.138 204.136 573.688 201.625C568.558 198.73 566.268 193.622 567.229 188.341C568.325 182.32 573.054 177.15 577.594 172.816C582.337 168.289 587.304 163.966 591.697 159.157C596.036 154.406 599.91 149.162 602.232 143.371C604.183 138.531 604.834 133.353 604.133 128.251C603.441 123.378 601.307 118.549 597.478 114.944C595.362 113.008 592.828 111.469 590.028 110.42C587.228 109.371 584.218 108.833 581.179 108.838C574.872 108.766 568.756 110.762 564.003 114.445C559.316 118.167 556.008 123.062 554.517 128.486C554.135 129.83 553.865 131.196 553.708 132.575C553.569 133.805 551.383 133.818 551.524 132.575H551.524Z" fill="#2F2E41"/>
<path d="M558.474 132.129L548.103 129.089C547.603 128.943 547.141 128.71 546.743 128.405C546.344 128.101 546.017 127.729 545.781 127.312C545.544 126.895 545.402 126.44 545.363 125.975C545.325 125.509 545.39 125.041 545.554 124.597C545.719 124.154 545.981 123.744 546.325 123.39C546.668 123.036 547.087 122.746 547.557 122.536C548.027 122.326 548.538 122.201 549.063 122.166C549.588 122.132 550.115 122.19 550.614 122.337L560.985 125.377C561.485 125.523 561.948 125.755 562.347 126.06C562.746 126.365 563.073 126.736 563.31 127.154C563.547 127.571 563.689 128.025 563.728 128.492C563.767 128.958 563.702 129.426 563.537 129.87C563.372 130.313 563.11 130.724 562.767 131.078C562.423 131.431 562.004 131.722 561.533 131.932C561.063 132.141 560.551 132.267 560.026 132.301C559.501 132.335 558.974 132.277 558.474 132.129H558.474Z" fill="#2F2E41"/>
<path d="M665 383.551H429.064V385H665V383.551Z" fill="#3F3D56"/>
<path d="M128.35 170.597C134.719 170.597 139.882 166.012 139.882 160.357C139.882 154.702 134.719 150.117 128.35 150.117C121.981 150.117 116.818 154.702 116.818 160.357C116.818 166.012 121.981 170.597 128.35 170.597Z" fill="#5EF36D"/>
<path d="M253.587 27.7198C259.956 27.7198 265.119 23.1353 265.119 17.4801C265.119 11.8249 259.956 7.24048 253.587 7.24048C247.218 7.24048 242.055 11.8249 242.055 17.4801C242.055 23.1353 247.218 27.7198 253.587 27.7198Z" fill="#F03A47"/>
<path d="M416.687 146.03C423.056 146.03 428.219 141.445 428.219 135.79C428.219 130.135 423.056 125.55 416.687 125.55C410.318 125.55 405.154 130.135 405.154 135.79C405.154 141.445 410.318 146.03 416.687 146.03Z" fill="#5EF36D"/>
<path d="M548.167 201.78C569.689 201.78 587.136 186.289 587.136 167.18C587.136 148.07 569.689 132.579 548.167 132.579C526.646 132.579 509.199 148.07 509.199 167.18C509.199 186.289 526.646 201.78 548.167 201.78Z" fill="#F03A47"/>
<path d="M446.655 275.967C446.121 275.967 445.591 275.892 445.084 275.746C444.446 275.565 443.855 275.274 443.345 274.888C442.835 274.503 442.416 274.032 442.113 273.501L437.216 265.007C436.911 264.478 436.727 263.901 436.673 263.309C436.619 262.716 436.698 262.12 436.903 261.555C437.109 260.989 437.438 260.465 437.872 260.013C438.306 259.56 438.836 259.188 439.432 258.917L519.163 222.682C520.367 222.135 521.766 222.036 523.052 222.405C524.339 222.773 525.407 223.581 526.023 224.65L530.92 233.144C531.535 234.212 531.648 235.454 531.233 236.596C530.817 237.738 529.908 238.687 528.705 239.234L448.972 275.469C448.256 275.797 447.461 275.968 446.655 275.967Z" fill="#F03A47"/>
<path d="M581.489 310.541H515.23C513.589 310.54 512.016 309.96 510.856 308.93C509.695 307.9 509.043 306.503 509.041 305.046V243.305C509.041 234.046 513.183 225.166 520.557 218.619C527.931 212.072 537.931 208.394 548.359 208.394C558.787 208.394 568.788 212.072 576.162 218.619C583.536 225.166 587.678 234.046 587.678 243.305V305.046C587.676 306.503 587.023 307.9 585.863 308.93C584.703 309.96 583.13 310.54 581.489 310.541Z" fill="#CCCCCC"/>
<path d="M556.123 303.831C556.073 303.831 556.023 303.831 555.972 303.829L545.229 303.554C543.878 303.519 542.598 303.008 541.67 302.136C540.742 301.263 540.243 300.098 540.282 298.899L542.875 219.403C542.893 218.809 543.043 218.224 543.317 217.681C543.591 217.139 543.984 216.65 544.472 216.243C544.571 216.16 544.673 216.081 544.778 216.006C545.722 215.332 546.907 214.979 548.118 215.011L558.86 215.287C560.211 215.323 561.49 215.834 562.417 216.706C563.345 217.579 563.845 218.743 563.808 219.942L561.214 299.438C561.174 300.614 560.621 301.73 559.671 302.55C558.72 303.37 557.448 303.829 556.123 303.831Z" fill="#F03A47"/>
<path d="M545.733 213.273C546.609 212.644 547.71 212.316 548.836 212.348L559.577 212.624C560.832 212.658 562.02 213.132 562.881 213.942C563.742 214.752 564.206 215.833 564.172 216.947L566.675 253.773C566.638 254.887 566.104 255.942 565.191 256.706C564.279 257.471 563.062 257.883 561.807 257.851L561.807 257.852L541.599 257.575C540.978 257.559 540.366 257.435 539.799 257.209C539.232 256.983 538.721 256.66 538.294 256.259C537.868 255.858 537.534 255.386 537.313 254.87C537.092 254.354 536.988 253.805 537.006 253.253L541.442 217.122C541.479 216 544.531 214.263 545.45 213.492C545.542 213.415 545.637 213.342 545.733 213.273Z" fill="#CCCCCC"/>
<path d="M530.625 219.845C531.666 220.227 532.517 220.929 533.024 221.822L537.889 230.329C538.456 231.323 538.555 232.476 538.166 233.536C537.776 234.595 536.93 235.473 535.812 235.979L500.587 255.548C499.467 256.051 498.169 256.14 496.976 255.794C495.783 255.448 494.794 254.696 494.224 253.703L494.224 253.703L484.831 237.814C484.549 237.322 484.38 236.786 484.332 236.235C484.284 235.685 484.359 235.132 484.552 234.608C484.744 234.083 485.052 233.597 485.456 233.178C485.861 232.759 486.354 232.415 486.908 232.165L526.661 219.977C527.215 219.725 527.819 219.574 528.439 219.532C529.059 219.489 529.682 219.556 530.272 219.729C530.393 219.764 530.51 219.803 530.625 219.845Z" fill="#CCCCCC"/>
<path d="M535.148 175.634C532.741 175.574 529.745 175.5 527.438 174.003C526.75 173.539 526.186 172.947 525.783 172.269C525.381 171.591 525.15 170.843 525.107 170.078C525.066 169.533 525.166 168.988 525.401 168.484C525.636 167.98 525.999 167.531 526.462 167.172C527.668 166.267 529.427 166.056 531.325 166.551L529.359 153.798L530.802 153.622L533.113 168.615L531.908 168.124C530.511 167.555 528.593 167.266 527.402 168.16C527.109 168.393 526.882 168.684 526.736 169.008C526.59 169.333 526.531 169.683 526.563 170.031C526.598 170.601 526.771 171.158 527.07 171.663C527.37 172.168 527.788 172.61 528.297 172.958C530.092 174.123 532.48 174.274 535.189 174.341L535.148 175.634Z" fill="#2F2E41"/>
<path d="M522.224 154.898H514.381V156.191H522.224V154.898Z" fill="#2F2E41"/>
<path d="M546.981 154.898H539.137V156.191H546.981V154.898Z" fill="#2F2E41"/>
<path d="M350.421 218.468C371.942 218.468 389.389 202.977 389.389 183.868C389.389 164.759 371.942 149.268 350.421 149.268C328.899 149.268 311.452 164.759 311.452 183.868C311.452 202.977 328.899 218.468 350.421 218.468Z" fill="#F03A47"/>
<path d="M332.742 165.238C328.194 164.285 323.283 163.004 320.039 159.824C317.277 157.118 315.982 152.94 318.429 149.731C320.664 146.801 325.071 145.726 328.781 145.176C333.093 144.538 337.525 144.445 341.571 142.815C343.558 142.017 345.292 140.796 346.618 139.26C347.85 137.724 348.919 136.09 349.812 134.38C350.658 132.712 351.788 131.171 353.163 129.81C354.726 128.45 356.743 127.576 358.911 127.318C363.793 126.659 368.427 128.662 372.269 131.15C375.988 133.606 379.363 136.449 382.32 139.619C389.036 146.725 393.658 155.2 395.773 164.284C396.057 165.506 398.163 164.989 397.879 163.769C395.857 155.172 391.657 147.097 385.597 140.156C382.596 136.695 379.148 133.558 375.325 130.81C371.367 127.979 366.797 125.511 361.591 125.277C359.183 125.153 356.78 125.577 354.609 126.508C352.614 127.442 350.935 128.831 349.744 130.531C347.291 133.835 346.108 138.103 342.15 140.337C338.142 142.601 333.123 142.623 328.576 143.253C324.531 143.813 320.028 144.996 317.291 147.88C314.262 151.07 314.376 155.417 316.638 158.935C319.151 162.844 323.821 164.977 328.511 166.249C329.715 166.576 330.936 166.852 332.161 167.108C333.528 167.394 334.112 165.525 332.742 165.238V165.238Z" fill="#2F2E41"/>
<path d="M348.757 195.421L348.717 194.128C351.426 194.061 353.814 193.91 355.609 192.746C356.118 192.397 356.536 191.955 356.835 191.449C357.134 190.944 357.307 190.388 357.343 189.818C357.374 189.47 357.315 189.12 357.169 188.795C357.024 188.471 356.796 188.18 356.503 187.947C355.312 187.053 353.395 187.342 351.998 187.911L350.793 188.402L353.103 173.409L354.546 173.585L352.581 186.338C354.479 185.842 356.238 186.056 357.443 186.959C357.906 187.318 358.269 187.767 358.504 188.27C358.739 188.774 358.839 189.319 358.798 189.863C358.755 190.629 358.525 191.377 358.122 192.056C357.72 192.734 357.155 193.326 356.468 193.79C354.162 195.286 351.165 195.361 348.757 195.421Z" fill="#2F2E41"/>
<path d="M369.524 174.684H361.681V175.977H369.524V174.684Z" fill="#2F2E41"/>
<path d="M344.768 174.684H336.925V175.977H344.768V174.684Z" fill="#2F2E41"/>
<path d="M81.7432 262.43C103.265 262.43 120.712 246.939 120.712 227.83C120.712 208.721 103.265 193.23 81.7432 193.23C60.2215 193.23 42.7747 208.721 42.7747 227.83C42.7747 246.939 60.2215 262.43 81.7432 262.43Z" fill="#F03A47"/>
<path d="M80.0796 239.383L80.0391 238.09C82.7482 238.023 85.1366 237.872 86.9313 236.708C87.4401 236.359 87.8584 235.917 88.1576 235.412C88.4568 234.906 88.6299 234.35 88.6652 233.78C88.6968 233.432 88.6375 233.082 88.4919 232.757C88.3463 232.433 88.1184 232.142 87.8258 231.909C86.6345 231.015 84.7175 231.305 83.3202 231.873L82.1153 232.364L84.4259 217.371L85.8687 217.547L83.9033 230.3C85.8018 229.805 87.561 230.018 88.7659 230.921C89.2285 231.28 89.5915 231.729 89.8264 232.233C90.0614 232.736 90.162 233.282 90.1204 233.826C90.0779 234.591 89.8473 235.339 89.4448 236.018C89.0423 236.696 88.4776 237.288 87.7903 237.752C85.4843 239.248 82.4876 239.323 80.0796 239.383Z" fill="#2F2E41"/>
<path d="M100.847 218.647H93.0039V219.94H100.847V218.647Z" fill="#2F2E41"/>
<path d="M76.0905 218.647H68.2476V219.94H76.0905V218.647Z" fill="#2F2E41"/>
<path d="M204.067 112.734C225.589 112.734 243.036 97.2431 243.036 78.1339C243.036 59.0247 225.589 43.5337 204.067 43.5337C182.546 43.5337 165.099 59.0247 165.099 78.1339C165.099 97.2431 182.546 112.734 204.067 112.734Z" fill="#5EF36D"/>
<path d="M231.609 90.9297L231.569 89.6367C234.278 89.5698 236.666 89.4189 238.461 88.2547C238.97 87.9058 239.388 87.4638 239.687 86.9586C239.986 86.4535 240.159 85.897 240.195 85.3271C240.226 84.9789 240.167 84.6289 240.021 84.3043C239.876 83.9798 239.648 83.6894 239.355 83.4558C238.164 82.5618 236.247 82.8509 234.85 83.4204L233.645 83.911L235.955 68.9183L237.398 69.0938L235.433 81.8471C237.332 81.3515 239.09 81.5642 240.295 82.4683C240.758 82.827 241.121 83.2757 241.356 83.7795C241.591 84.2833 241.692 84.8285 241.65 85.3726C241.607 86.1383 241.377 86.8865 240.974 87.5647C240.572 88.243 240.007 88.8349 239.32 89.2989C237.014 90.7952 234.017 90.8697 231.609 90.9297Z" fill="#2F2E41"/>
<path d="M227.62 70.1936H219.777V71.4866H227.62V70.1936Z" fill="#2F2E41"/>
<path d="M227.102 41.4948C225.646 33.7912 220.15 27.1688 213.079 22.6983C206.147 18.3932 197.859 16.1435 189.401 16.2707C173.023 16.4307 157.009 24.5755 148.229 36.7972C138.501 50.3371 138.309 68.0185 144.885 82.6579C146.566 86.429 148.698 90.0293 151.243 93.3971C154.066 97.1111 157.486 100.387 160.812 103.742C167.011 109.993 174.117 118.687 169.963 127.409C168.429 130.631 165.193 133.56 161.074 133.791C157.597 133.986 153.742 132.509 152.2 129.607C150.473 126.356 152.864 122.508 156.397 121.178C160.103 119.782 163.954 121.841 165.323 125.008C166.003 126.466 166.026 128.1 165.387 129.573C165.251 129.797 165.216 130.058 165.288 130.305C165.361 130.551 165.537 130.764 165.779 130.899C166.03 131.028 166.327 131.063 166.607 130.998C166.886 130.933 167.126 130.772 167.273 130.551C168.009 128.92 168.168 127.128 167.731 125.414C167.294 123.699 166.281 122.144 164.825 120.952C163.348 119.696 161.418 118.945 159.377 118.833C157.335 118.721 155.315 119.255 153.675 120.34C150.212 122.586 148.381 126.606 150.136 130.233C151.656 133.374 155.332 135.271 159.045 135.671C161.093 135.85 163.158 135.556 165.04 134.816C166.922 134.076 168.556 132.916 169.783 131.45C172.521 128.266 173.762 124.263 173.244 120.284C172.029 110.358 163.097 103.571 156.392 96.3071C150.43 89.7978 146.228 82.1613 144.11 73.9845C141.942 65.9477 142.023 57.5618 144.345 49.559C146.597 41.9711 151.227 35.1057 157.696 29.7595C163.905 24.6504 171.488 21.0428 179.718 19.2825C187.855 17.484 196.417 17.9466 204.248 20.608C212.457 23.4992 219.741 29.22 223.213 36.5046C224.047 38.2718 224.645 40.1196 224.995 42.0103C225.227 43.2386 227.333 42.7177 227.102 41.4948H227.102Z" fill="#2F2E41"/>
<path d="M227.054 41.7868C230.701 38.667 236.646 38.2172 241.04 40.3304C245.586 42.5162 247.41 47.2239 246.244 51.5801C245.645 54.0134 244.062 56.1671 241.794 57.6326C240.648 58.3408 241.739 60.0228 242.896 59.3073C247.813 56.2684 249.883 50.4118 248.205 45.3456C246.453 40.056 240.634 36.8981 234.557 37.1088C231.187 37.1882 227.966 38.365 225.509 40.4154C224.495 41.2831 226.041 42.6535 227.054 41.7868Z" fill="#2F2E41"/>
<path d="M91.6669 205.97C96.3671 205.582 100.302 202.819 102.389 199.12C103.454 197.206 104.014 195.101 104.024 192.966C104.034 190.831 103.495 188.722 102.447 186.8C100.232 182.769 96.5367 179.53 91.9699 177.615C86.6582 175.33 80.6595 174.698 74.8166 174.907C63.8063 175.302 51.676 178.046 44.9077 186.382C41.7238 190.163 40.3401 194.902 41.055 199.58C41.9114 204.489 45.2764 208.74 48.8691 212.404C52.6345 216.245 56.9797 219.704 59.9557 224.104C62.5307 227.911 63.9159 232.705 62.1934 237.025C61.7827 238.049 61.173 239.001 60.392 239.838C59.5013 240.792 61.0384 242.172 61.9365 241.21C65.0353 237.889 65.6618 233.506 64.686 229.375C63.6117 224.827 60.5127 220.982 57.1239 217.547C50.53 210.863 40.7097 203.564 43.4813 193.579C44.7826 189.251 47.7439 185.461 51.8545 182.864C56.262 180.027 61.4951 178.466 66.8126 177.618C76.9883 175.996 89.311 176.165 96.9991 183.205C100.194 186.131 102.392 190.219 101.803 194.368C101.273 198.109 98.5822 201.779 94.6486 203.339C93.7036 203.712 92.6965 203.946 91.6669 204.031C90.279 204.145 90.2655 206.086 91.6669 205.97H91.6669Z" fill="#2F2E41"/>
</svg>
