<svg width="30" height="30" viewBox="0 0 40 39" fill="none" xmlns="http://www.w3.org/2000/svg">
<path d="M20 0C8.97133 0 0 8.74704 0 19.5C0 30.253 8.97133 39 20 39C31.0287 39 40 30.2514 40 19.5C40 8.74857 31.0287 0 20 0ZM20 35.9791C10.6816 35.9791 3.09836 28.5869 3.09836 19.5C3.09836 10.4131 10.6816 3.0209 20 3.0209C29.3184 3.0209 36.9016 10.4131 36.9016 19.5C36.9016 28.5869 29.3199 35.9791 20 35.9791Z" fill="#5EF36D"/>
<path d="M27.7462 17.8536H21.5494V11.8118C21.5494 10.978 20.857 10.3013 20.0002 10.3013C19.1435 10.3013 18.451 10.978 18.451 11.8118V17.8536H12.2543C11.3976 17.8536 10.7051 18.5303 10.7051 19.364C10.7051 20.1978 11.3976 20.8745 12.2543 20.8745H18.451V26.9163C18.451 27.7501 19.1435 28.4268 20.0002 28.4268C20.857 28.4268 21.5494 27.7501 21.5494 26.9163V20.8745H27.7462C28.6029 20.8745 29.2954 20.1978 29.2954 19.364C29.2954 18.5303 28.6029 17.8536 27.7462 17.8536Z" fill="#5EF36D"/>
</svg>
