<svg width="20" height="20" viewBox="0 0 24 24" fill="none" xmlns="http://www.w3.org/2000/svg">
<path d="M16.1054 14.7796L13.3257 11.9998L16.1054 9.22005C16.4715 8.85395 16.4716 8.26037 16.1055 7.89423C15.7393 7.52809 15.1457 7.52814 14.7797 7.89423L11.9999 10.674L9.22002 7.89423C8.85398 7.52809 8.2603 7.52809 7.89421 7.89423C7.52812 8.26037 7.52812 8.85395 7.89426 9.22005L10.674 11.9998L7.89426 14.7796C7.52812 15.1457 7.52807 15.7393 7.89421 16.1054C8.26045 16.4716 8.85402 16.4715 9.22002 16.1054L11.9999 13.3256L14.7797 16.1054C15.1457 16.4715 15.7394 16.4716 16.1055 16.1054C16.4716 15.7393 16.4716 15.1457 16.1054 14.7796Z" fill="black"/>
<path d="M12 0C5.36756 0 0 5.36705 0 12C0 18.6325 5.36705 24 12 24C18.6324 24 24 18.633 24 12C24 5.36752 18.633 0 12 0ZM12 22.125C6.40387 22.125 1.875 17.5965 1.875 12C1.875 6.40383 6.40345 1.875 12 1.875C17.5961 1.875 22.125 6.40345 22.125 12C22.125 17.5962 17.5965 22.125 12 22.125Z" fill="black"/>
</svg>
