<svg width="24" height="24" viewBox="0 0 24 24" fill="none" xmlns="http://www.w3.org/2000/svg">
<g clip-path="url(#clip0)">
<path d="M23.2148 12.6664V6.71703C23.2148 3.8967 20.9203 1.60217 18.0999 1.60217C15.7441 1.60217 13.7556 3.20324 13.1643 5.3743C12.2913 5.2452 11.3843 5.26259 10.5199 5.42727C10.3309 5.46327 10.2068 5.6457 10.2428 5.8348C10.278 6.02502 10.4659 6.14849 10.6503 6.11192C11.4268 5.96408 12.242 5.94655 13.0273 6.05877C12.9995 6.27434 12.9851 6.49405 12.9851 6.71708V8.89902C12.9514 8.89756 11.1162 8.89644 11.1162 8.89644C9.97406 8.89644 9.01898 9.71192 8.80209 10.7912C8.63175 10.7181 8.45733 10.6547 8.27991 10.6013V10.1165C8.62172 9.73335 8.87442 9.27627 9.0158 8.7748C9.35709 8.60253 9.70275 8.22552 9.90736 7.79108C10.1944 7.19999 10.1002 6.6012 9.51244 6.31963C9.39 6.26197 9.26602 6.22925 9.14414 6.22128V4.745C9.14414 3.44342 8.08523 2.38452 6.78366 2.38452H5.01623C3.71466 2.38452 2.65575 3.44342 2.65575 4.745V6.22128C2.53383 6.2292 2.40984 6.26192 2.28741 6.31963C1.69955 6.60139 1.60552 7.1998 1.89248 7.79108C2.09705 8.22547 2.44261 8.60244 2.78405 8.77475C2.92547 9.27631 3.17817 9.73339 3.51998 10.1165V10.6013C1.43873 11.2264 0 13.1489 0 15.3386C0 15.6152 0.225094 15.8403 0.50175 15.8403H4.60608C5.07502 17.1315 5.87166 18.2735 6.9248 19.1632C6.40064 19.9538 6.09998 20.8975 6.09998 21.8962C6.09998 22.1728 6.32508 22.3979 6.60173 22.3979H17.3983C17.6749 22.3979 17.9 22.1728 17.9 21.8961C17.9 19.7067 16.4612 17.784 14.3799 17.159V16.6283C14.5912 16.3916 14.7686 16.1267 14.9064 15.8403H18.6489C18.3821 16.501 18.0185 17.1163 17.5643 17.6747C17.4429 17.824 17.4654 18.0434 17.6147 18.1649C17.6793 18.2175 17.7571 18.2431 17.8344 18.2431C17.9357 18.2431 18.0361 18.1992 18.105 18.1145C18.6626 17.429 19.0955 16.6648 19.3947 15.8403H23.4982C23.7748 15.8403 23.9999 15.6152 23.9999 15.3386C24 14.3659 23.7146 13.4447 23.2148 12.6664ZM13.6821 6.71703C13.6821 4.28103 15.6639 2.29916 18.1 2.29916C20.536 2.29916 22.5179 4.28099 22.5179 6.71703V11.8094C21.9583 11.2588 21.2648 10.8376 20.48 10.6017V9.93758C21.0307 9.31934 21.3442 8.51473 21.3442 7.66573V6.01077C21.3442 5.22786 20.7072 4.59088 19.9243 4.59088H16.2591C15.4761 4.59088 14.8391 5.22786 14.8391 6.01077V7.66573C14.8391 8.52336 15.1589 9.33575 15.7201 9.95642V10.601C15.5428 10.6543 15.3683 10.718 15.1979 10.7911C15.0342 9.97658 14.45 9.31255 13.6822 9.0357V6.71703H13.6821ZM19.4443 9.92352L18.6004 10.4908C18.2914 10.6985 17.892 10.6985 17.5829 10.4908L16.7389 9.92352C15.9857 9.41727 15.5361 8.57328 15.5361 7.66573V6.01077C15.5361 5.61214 15.8604 5.28781 16.2591 5.28781H19.9243C20.3229 5.28781 20.6473 5.61209 20.6473 6.01077V7.66573C20.6472 8.57323 20.1975 9.41727 19.4443 9.92352ZM16.417 10.5469L17.1941 11.0692C17.4667 11.2525 17.7792 11.3441 18.0916 11.3441C18.404 11.3441 18.7165 11.2525 18.9891 11.0692L19.7829 10.5357V11.0846C19.7829 12.0126 19.028 12.7676 18.0999 12.7676C17.172 12.7676 16.417 12.0126 16.417 11.0846V10.5469H16.417ZM14.7555 14.6844C14.6133 14.733 14.507 14.85 14.4712 14.9978C14.3114 15.6588 13.9125 16.2318 13.3483 16.611L12.5067 17.1766C12.1989 17.3835 11.8011 17.3835 11.4932 17.1766L10.6517 16.611C10.0875 16.2318 9.68873 15.6589 9.5288 14.9975C9.49298 14.8499 9.38662 14.7329 9.24455 14.6844C9.06764 14.624 8.78133 14.3562 8.62303 14.006C8.43155 13.5824 8.75573 13.3558 8.91731 13.4604C9.02419 13.5295 9.16069 13.533 9.27201 13.4717C9.38348 13.4105 9.45276 13.2935 9.45276 13.1663V12.2884C9.45276 11.84 9.81755 11.4752 10.2659 11.4752H13.734C14.1824 11.4752 14.5472 11.84 14.5472 12.2884V13.1662C14.5472 13.2934 14.6164 13.4105 14.7279 13.4717C14.8394 13.5329 14.9753 13.5286 15.0826 13.4603C15.2942 13.3715 15.6265 13.4995 15.3769 14.0059C15.2132 14.3536 14.9324 14.6239 14.7555 14.6844ZM10.317 17.2258L11.1045 17.7551C11.3765 17.9379 11.6883 18.0293 12 18.0293C12.3118 18.0293 12.6236 17.9379 12.8955 17.7551L13.683 17.2258V17.6422C13.683 18.5702 12.928 19.3252 12 19.3252C11.0721 19.3252 10.317 18.5702 10.317 17.6422V17.2258ZM11.1163 9.59342H12.8837C13.7152 9.59342 14.4061 10.2067 14.5281 11.0046C14.2972 10.8613 14.0252 10.7783 13.734 10.7783H10.2659C9.97476 10.7783 9.70275 10.8613 9.47189 11.0046C9.59381 10.2066 10.2848 9.59342 11.1163 9.59342ZM4.21706 10.7141L5.00452 11.2433C5.27653 11.4262 5.58825 11.5176 5.90001 11.5176C6.21173 11.5175 6.52359 11.4261 6.79551 11.2433L7.58301 10.714V11.1305C7.58301 12.0584 6.828 12.8134 5.90001 12.8134C4.97203 12.8134 4.21706 12.0584 4.21706 11.1305V10.7141ZM5.01633 3.08155H6.78375C7.61526 3.08155 8.3062 3.69481 8.42812 4.49277C8.19726 4.34942 7.9252 4.26641 7.63406 4.26641H4.16597C3.87483 4.26641 3.60281 4.34942 3.37195 4.49277C3.49387 3.69481 4.18486 3.08155 5.01633 3.08155ZM3.1447 8.17264C2.96775 8.11217 2.68687 7.8418 2.52314 7.49417C2.44402 7.32613 2.41528 7.1833 2.44219 7.09189C2.43234 6.99594 2.65584 6.80427 2.81737 6.94855C2.91225 7.0333 3.06066 7.02106 3.17212 6.95994C3.28355 6.89872 3.35287 6.78167 3.35287 6.65445V5.77653C3.35287 5.32817 3.71766 4.96339 4.16602 4.96339H7.63411C8.08247 4.96339 8.44725 5.32817 8.44725 5.77653V6.65445C8.44725 6.78163 8.51653 6.89872 8.628 6.95994C8.73947 7.02106 8.89472 7.04038 8.98275 6.94855C9.10439 6.82166 9.32714 6.95234 9.35794 7.09189C9.37847 7.18494 9.35611 7.32613 9.27698 7.49417C9.11325 7.84184 8.83237 8.11217 8.65575 8.17255C8.51334 8.22111 8.40703 8.33825 8.37122 8.486C8.21142 9.14703 7.81261 9.71994 7.24833 10.0993L6.40678 10.6648C6.099 10.8717 5.70122 10.8718 5.39334 10.6648L4.55184 10.0993C3.98756 9.71994 3.58875 9.14699 3.42886 8.48591C3.39314 8.3383 3.28687 8.2212 3.1447 8.17264ZM3.52917 11.3308C3.63136 12.5496 4.6553 13.5104 5.90001 13.5104C7.14473 13.5104 8.16862 12.5497 8.27091 11.3311C8.43661 11.3897 8.59861 11.459 8.75578 11.5378V12.7332C8.63386 12.7411 8.50983 12.7738 8.38744 12.8315C7.95698 13.0342 7.62722 13.5273 7.99252 14.303C8.15184 14.6413 8.39681 14.9443 8.65866 15.1434H0.701437C0.780422 13.4112 1.9058 11.9035 3.52917 11.3308ZM5.35233 15.8403H9.09366C9.23142 16.1268 9.4088 16.3916 9.62006 16.6283V17.1592C8.72259 17.4289 7.94461 17.9403 7.34986 18.6105C6.46687 17.8578 5.78433 16.9095 5.35233 15.8403ZM17.1986 21.701H6.80142C6.88059 19.9692 8.00808 18.4592 9.63262 17.8873C9.75572 19.0849 10.7704 20.0222 12 20.0222C13.2296 20.0222 14.2444 19.0848 14.3674 17.8871C15.9926 18.4588 17.1196 19.9677 17.1986 21.701ZM15.3414 15.1433C15.6032 14.9443 15.8482 14.6412 16.0075 14.3029C16.3728 13.5272 16.043 13.0341 15.6126 12.8314C15.4901 12.7738 15.3661 12.741 15.2442 12.7331V11.5377C15.4025 11.4583 15.5658 11.3888 15.7327 11.3299C15.8559 12.5274 16.8706 13.4645 18.1 13.4645C19.3296 13.4645 20.3442 12.5274 20.4674 11.3299C22.0915 11.9018 23.2194 13.4128 23.2987 15.1433H15.3414Z" fill="black"/>
<path d="M4.70641 7.32078C4.93016 7.32078 5.11155 7.13939 5.11155 6.91564C5.11155 6.69189 4.93016 6.5105 4.70641 6.5105C4.48266 6.5105 4.30127 6.69189 4.30127 6.91564C4.30127 7.13939 4.48266 7.32078 4.70641 7.32078Z" fill="black"/>
<path d="M7.05578 7.32078C7.27953 7.32078 7.46092 7.13939 7.46092 6.91564C7.46092 6.69189 7.27953 6.5105 7.05578 6.5105C6.83202 6.5105 6.65063 6.69189 6.65063 6.91564C6.65063 7.13939 6.83202 7.32078 7.05578 7.32078Z" fill="black"/>
<path d="M4.98989 8.93909C5.20771 9.15626 5.5394 9.28081 5.89987 9.28081C6.26038 9.28081 6.59207 9.15626 6.8099 8.93904C6.94617 8.80315 6.94649 8.58246 6.8106 8.4462C6.67471 8.30984 6.45403 8.3096 6.31776 8.44549C6.25378 8.50929 6.10593 8.58382 5.89987 8.58382C5.69385 8.58382 5.54596 8.50929 5.48198 8.44549C5.34567 8.30965 5.12503 8.30993 4.98914 8.44624C4.85324 8.58256 4.85362 8.8032 4.98989 8.93909Z" fill="black"/>
<path d="M10.8063 13.8326C11.03 13.8326 11.2114 13.6512 11.2114 13.4275C11.2114 13.2037 11.03 13.0223 10.8063 13.0223C10.5825 13.0223 10.4011 13.2037 10.4011 13.4275C10.4011 13.6512 10.5825 13.8326 10.8063 13.8326Z" fill="black"/>
<path d="M13.1556 13.8326C13.3794 13.8326 13.5608 13.6512 13.5608 13.4275C13.5608 13.2037 13.3794 13.0223 13.1556 13.0223C12.9319 13.0223 12.7505 13.2037 12.7505 13.4275C12.7505 13.6512 12.9319 13.8326 13.1556 13.8326Z" fill="black"/>
<path d="M12.4179 14.9572C12.3538 15.021 12.206 15.0955 12 15.0955C11.7939 15.0955 11.6461 15.021 11.5821 14.9572C11.4458 14.8214 11.2252 14.8216 11.0892 14.958C10.9533 15.0943 10.9537 15.3149 11.09 15.4508C11.3078 15.6679 11.6395 15.7925 12 15.7925C12.3604 15.7925 12.6921 15.6679 12.9099 15.4508C13.0462 15.315 13.0466 15.0943 12.9107 14.958C12.7748 14.8216 12.5542 14.8212 12.4179 14.9572Z" fill="black"/>
<path d="M16.9064 7.275C17.1301 7.275 17.3115 7.09362 17.3115 6.86986C17.3115 6.64611 17.1301 6.46472 16.9064 6.46472C16.6826 6.46472 16.5012 6.64611 16.5012 6.86986C16.5012 7.09362 16.6826 7.275 16.9064 7.275Z" fill="black"/>
<path d="M19.2557 7.275C19.4795 7.275 19.6609 7.09362 19.6609 6.86986C19.6609 6.64611 19.4795 6.46472 19.2557 6.46472C19.032 6.46472 18.8506 6.64611 18.8506 6.86986C18.8506 7.09362 19.032 7.275 19.2557 7.275Z" fill="black"/>
<path d="M18.518 8.39962C18.454 8.46341 18.3061 8.53795 18.1001 8.53795C17.894 8.53795 17.7462 8.46341 17.6822 8.39957C17.5459 8.26377 17.3252 8.26401 17.1893 8.40032C17.0534 8.53663 17.0538 8.75727 17.1901 8.89316C17.4079 9.11034 17.7396 9.23488 18.1001 9.23488C18.4606 9.23488 18.7923 9.11034 19.0101 8.89312C19.1464 8.75723 19.1467 8.53654 19.0108 8.40027C18.8749 8.26391 18.6542 8.26373 18.518 8.39962Z" fill="black"/>
</g>
<defs>
<clipPath id="clip0">
<rect width="24" height="24" fill="white"/>
</clipPath>
</defs>
</svg>
