<svg  viewBox="0 0 32 32" fill="none" xmlns="http://www.w3.org/2000/svg">
<path d="M22.9266 2.75404C20.2571 2.73977 17.7195 3.91213 16 5.954C14.2912 3.89817 11.7465 2.72248 9.07337 2.75404C4.06227 2.75404 0 6.81631 0 11.8274C0 20.4148 14.9873 28.7995 15.5949 29.1236C15.8401 29.2874 16.1598 29.2874 16.4051 29.1236C17.0127 28.7995 32 20.5363 32 11.8274C32 6.81631 27.9377 2.75404 22.9266 2.75404ZM16 27.5034C13.6506 26.1262 1.62026 18.7945 1.62026 11.8274C1.62026 7.71117 4.95714 4.37421 9.07344 4.37421C11.5942 4.34111 13.9531 5.61255 15.3114 7.73622C15.5872 8.11651 16.1191 8.20125 16.4994 7.92539C16.5721 7.87267 16.636 7.80886 16.6886 7.73622C18.9413 4.2911 23.5603 3.32444 27.0054 5.57712C29.1144 6.95617 30.3839 9.30747 30.3797 11.8273C30.3797 18.8755 18.3493 26.1666 16 27.5034Z" fill="black"/>
</svg>
