<svg  viewBox="0 0 32 32" fill="none" xmlns="http://www.w3.org/2000/svg">
<path d="M3.47831 12.5217C1.56032 12.5217 0 14.0821 0 16C0 17.918 1.56032 19.4784 3.47831 19.4784C5.39631 19.4784 6.95663 17.918 6.95663 16C6.95663 14.0821 5.3961 12.5217 3.47831 12.5217ZM3.47831 18.087C2.32744 18.087 1.39137 17.1509 1.39137 16C1.39137 14.8492 2.32744 13.9131 3.47831 13.9131C4.62919 13.9131 5.56526 14.8492 5.56526 16C5.56526 17.1509 4.62919 18.087 3.47831 18.087Z" fill="black"/>
<path d="M15.9998 12.5217C14.0818 12.5217 12.5215 14.0821 12.5215 16C12.5215 17.918 14.0818 19.4784 15.9998 19.4784C17.9178 19.4784 19.4781 17.918 19.4781 16C19.4781 14.0821 17.9176 12.5217 15.9998 12.5217ZM15.9998 18.087C14.8489 18.087 13.9128 17.1509 13.9128 16C13.9128 14.8492 14.8489 13.9131 15.9998 13.9131C17.1507 13.9131 18.0867 14.8492 18.0867 16C18.0867 17.1509 17.1507 18.087 15.9998 18.087Z" fill="black"/>
<path d="M28.5218 12.5217C26.6038 12.5217 25.0435 14.0821 25.0435 16C25.0435 17.918 26.6038 19.4784 28.5218 19.4784C30.4398 19.4784 32.0001 17.918 32.0001 16C32.0001 14.0821 30.4396 12.5217 28.5218 12.5217ZM28.5218 18.087C27.3709 18.087 26.4348 17.1509 26.4348 16C26.4348 14.8492 27.3709 13.9131 28.5218 13.9131C29.6727 13.9131 30.6087 14.8492 30.6087 16C30.6087 17.1509 29.6727 18.087 28.5218 18.087Z" fill="black"/>
</svg>
